<mxfile host="app.diagrams.net" modified="2023-05-27T16:33:25.029Z" agent="Mozilla/5.0 (Windows NT 10.0; Win64; x64) AppleWebKit/537.36 (KHTML, like Gecko) Chrome/113.0.0.0 Safari/537.36" version="21.3.4" etag="sbJj9N9dSIcBuJC7YmSj" type="github">
  <diagram name="PÃ¡gina-1" id="trd2jitWAocxGzEx_tYF">
    <mxGraphModel>
      <root>
        <mxCell id="0" />
        <mxCell id="1" parent="0" />
      </root>
    </mxGraphModel>
  </diagram>
</mxfile>
